<svg width="408" height="461" viewBox="0 0 408 461" fill="none" xmlns="http://www.w3.org/2000/svg">
<g clip-path="url(#clip0_1_2)">
<g clip-path="url(#clip1_1_2)">
<mask id="mask0_1_2" style="mask-type:luminance" maskUnits="userSpaceOnUse" x="0" y="0" width="408" height="461">
<path d="M408 0H0V461H408V0Z" fill="white"/>
</mask>
<g mask="url(#mask0_1_2)">
<path d="M276.548 362.99C289.5 350.801 296.178 332.542 289.22 317.096C279.09 332.639 262.415 344.879 243.081 350.964C235.551 353.334 226.891 355.289 222.795 361.266C220.247 364.986 220.061 369.644 221.209 373.856C222.358 378.067 224.722 381.942 227.063 385.763L227.076 386.843C245.404 382.182 263.596 375.178 276.548 362.99Z" fill="#516138"/>
<path d="M288.83 317.178C286.646 330.629 279.501 343.561 268.575 353.31C266.204 355.515 263.513 357.35 260.593 358.751C257.588 360.081 254.313 360.686 251.031 360.517C247.939 360.419 244.79 360.007 241.725 360.563C240.222 360.828 238.787 361.392 237.507 362.223C236.227 363.054 235.128 364.135 234.275 365.401C232.243 368.389 231.568 371.832 231.043 375.22C230.46 378.981 229.923 382.896 227.446 386.132C227.146 386.524 227.863 386.905 228.163 386.514C232.473 380.884 231.031 373.69 233.939 367.619C235.296 364.787 237.644 362.292 241.155 361.436C244.224 360.688 247.472 361.11 250.601 361.234C253.809 361.437 257.022 360.951 260.025 359.809C263.016 358.543 265.783 356.802 268.219 354.654C273.553 350.098 278.11 344.706 281.713 338.688C285.711 332.095 288.413 324.8 289.672 317.194C289.747 316.729 288.905 316.716 288.83 317.178Z" fill="white"/>
<path d="M272.319 350.304C274.543 351.682 277.142 352.333 279.754 352.167C282.365 352 284.86 351.024 286.891 349.373C287.275 349.042 286.701 348.508 286.316 348.839C284.428 350.379 282.104 351.288 279.673 351.439C277.241 351.59 274.823 350.975 272.759 349.681C272.323 349.401 271.886 350.026 272.319 350.304Z" fill="white"/>
<path d="M252.591 360.747C252.158 358.397 252.228 355.983 252.796 353.662C253.364 351.341 254.417 349.167 255.886 347.283C256.185 346.89 255.467 346.508 255.169 346.901C253.644 348.864 252.553 351.129 251.968 353.545C251.382 355.961 251.316 358.474 251.772 360.917C251.862 361.382 252.68 361.209 252.591 360.747Z" fill="white"/>
<path d="M284.645 331.899C283.726 331.572 282.907 331.015 282.264 330.283C281.621 329.55 281.177 328.665 280.972 327.712C280.889 327.247 280.071 327.42 280.153 327.883C280.384 328.934 280.876 329.91 281.585 330.721C282.293 331.532 283.194 332.151 284.205 332.522C284.301 332.57 284.41 332.585 284.515 332.563C284.62 332.541 284.715 332.484 284.783 332.402C284.812 332.361 284.83 332.314 284.839 332.265C284.847 332.216 284.844 332.166 284.831 332.118C284.818 332.07 284.794 332.026 284.762 331.988C284.73 331.95 284.69 331.92 284.645 331.899Z" fill="white"/>
<path d="M227.802 299.534C227.845 299.826 227.887 300.118 227.924 300.414C228.47 304.336 228.647 308.3 228.455 312.255C228.445 312.561 228.431 312.871 228.411 313.176C227.802 322.798 225.178 332.185 220.711 340.729C218.894 344.218 216.795 347.553 214.436 350.701C211.149 355.093 207.183 359.629 205.799 364.562C205.649 365.074 205.534 365.595 205.457 366.122L225.558 386.773C225.63 386.8 225.698 386.832 225.771 386.859L226.53 387.715C226.666 387.559 226.803 387.394 226.939 387.237C227.018 387.146 227.093 387.051 227.173 386.961C227.224 386.899 227.275 386.837 227.326 386.784C227.343 386.763 227.36 386.742 227.372 386.726C227.422 386.673 227.463 386.618 227.508 386.569C228.277 385.649 229.04 384.722 229.797 383.79C229.803 383.786 229.803 383.786 229.804 383.777C235.552 376.657 240.666 369.057 244.289 361.025C244.398 360.783 244.512 360.538 244.612 360.287C246.213 356.686 247.48 352.946 248.397 349.115C248.886 347.034 249.255 344.926 249.5 342.803C250.12 337.323 249.744 331.775 248.389 326.428C245.683 315.716 239.061 305.874 228.606 299.978C228.339 299.827 228.075 299.681 227.802 299.534Z" fill="#516138"/>
<path d="M227.546 299.802C235.127 311.684 238.386 325.746 236.421 339.242C236.066 342.213 235.185 345.098 233.82 347.761C232.301 350.437 230.086 352.652 227.41 354.171C224.873 355.709 222.073 357.027 220.011 359.074C218.997 360.07 218.233 361.293 217.782 362.641C217.332 363.989 217.206 365.425 217.417 366.831C217.865 370.279 219.714 373.382 221.643 376.361C223.785 379.669 226.07 383.076 226.335 386.955C226.367 387.425 227.205 387.354 227.173 386.885C226.712 380.136 220.573 375.146 218.687 368.778C217.806 365.807 217.952 362.587 220.161 360.069C222.094 357.866 224.98 356.505 227.564 354.967C230.205 353.509 232.449 351.427 234.1 348.902C235.615 346.316 236.622 343.465 237.069 340.502C238.167 333.937 238.067 327.228 236.775 320.698C235.304 313.113 232.404 305.876 228.228 299.375C227.967 298.964 227.286 299.394 227.546 299.802Z" fill="white"/>
<path d="M237.327 334.885C242.832 334.835 247.529 331.248 248.316 326.523C248.394 326.057 247.565 325.931 247.487 326.397C246.75 330.823 242.392 334.11 237.246 334.157C236.704 334.162 236.788 334.89 237.327 334.885Z" fill="white"/>
<path d="M228.814 353.539C226.91 352.022 225.334 350.134 224.182 347.99C223.03 345.845 222.325 343.49 222.112 341.065C222.078 340.595 221.24 340.666 221.274 341.135C221.502 343.658 222.24 346.109 223.444 348.338C224.649 350.567 226.293 352.528 228.279 354.103C228.673 354.427 229.206 353.861 228.814 353.539Z" fill="white"/>
<path d="M234.409 313.745C233.391 313.951 232.341 313.93 231.333 313.685C230.324 313.439 229.382 312.973 228.574 312.322C228.185 311.994 227.652 312.56 228.038 312.886C228.934 313.602 229.975 314.115 231.089 314.389C232.203 314.663 233.364 314.691 234.49 314.472C234.713 314.429 234.889 314.288 234.868 314.073C234.848 313.97 234.789 313.879 234.704 313.818C234.619 313.757 234.513 313.73 234.409 313.745Z" fill="white"/>
<path d="M181.226 386.229C156.208 403.329 131.334 407.668 111.186 398.449C85.3302 386.618 69.6678 354.044 68.2148 309.08L69.7465 309.224C71.179 353.562 86.4709 385.612 111.701 397.157C131.309 406.129 155.646 401.817 180.228 385.015L181.226 386.229Z" fill="#516138"/>
<path d="M335.83 96.6927C333.366 123.829 326.347 152.442 315.34 180.05C301.728 214.191 283.13 244.263 261.557 267.013L260.359 265.97C281.828 243.329 300.341 213.39 313.897 179.39C326.148 148.665 333.434 116.691 334.978 86.9386L336.508 87.1946C336.346 90.3369 336.12 93.5029 335.83 96.6927Z" fill="#516138"/>
<path d="M269.369 58.1268L267.882 58.2896C261.251 32.2403 248.398 14.1937 230.711 6.10025C208.227 -4.18789 180.425 2.72079 152.425 25.5539C124.283 48.5037 99.3701 84.7543 82.2758 127.63L80.8328 126.97C98.0021 83.9069 123.043 47.481 151.343 24.4038C179.784 1.20982 208.154 -5.74953 231.226 4.808C249.42 13.1333 262.61 31.5707 269.369 58.1268Z" fill="#516138"/>
<path d="M351.893 284.914C321.592 333.106 284.83 367.538 248.379 381.869L247.642 380.518C283.841 366.286 320.387 332.03 350.55 284.059L351.893 284.914Z" fill="#516138"/>
<path d="M398.643 176.945C398.144 182.445 397.504 188.012 396.723 193.647L395.203 193.278C401.035 151.232 398.967 112.68 389.219 81.783L390.684 81.538C399.186 108.49 401.888 141.204 398.643 176.945Z" fill="#516138"/>
<path d="M82.1618 135.172C78.2726 143.362 74.5732 151.848 71.1665 160.392C51.5624 209.562 41.6279 259.778 42.4398 305.613L40.9076 305.449C40.0949 259.444 50.058 209.055 69.7235 159.732C73.14 151.164 76.8498 142.654 80.7503 134.441L82.1618 135.172Z" fill="#516138"/>
<path d="M180.49 420.014C155.472 437.114 130.598 441.454 110.45 432.234C84.5948 420.403 68.9325 387.83 67.4795 342.865L69.0112 343.009C70.4436 387.347 85.7355 419.398 110.965 430.942C130.573 439.914 154.91 435.602 179.493 418.8L180.49 420.014Z" fill="#516138"/>
<path d="M335.094 130.478C332.631 157.614 325.612 186.227 314.604 213.836C300.992 247.977 282.394 278.048 260.821 300.799L259.624 299.755C281.093 277.114 299.606 247.175 313.161 213.175C325.412 182.45 332.699 150.476 334.243 120.724L335.773 120.98C335.611 124.122 335.384 127.288 335.094 130.478Z" fill="#516138"/>
<path d="M332.396 93.7869L330.908 93.9498C324.277 67.9005 311.424 49.8538 293.738 41.7604C271.254 31.4723 243.451 38.3809 215.452 61.2141C187.31 84.1638 162.397 120.414 145.302 163.29L143.859 162.63C161.029 119.567 186.07 83.1412 214.369 60.0639C242.811 36.87 271.181 29.9106 294.253 40.4682C312.447 48.7935 325.636 67.2309 332.396 93.7869Z" fill="#516138"/>
<path d="M349.908 330.573C319.606 378.764 282.845 413.197 246.394 427.528L245.656 426.176C281.855 411.945 318.402 377.688 348.564 329.717L349.908 330.573Z" fill="#516138"/>
<path d="M397.908 210.731C397.409 216.23 396.769 221.798 395.988 227.432L394.468 227.064C400.3 185.017 398.232 146.465 388.484 115.568L389.948 115.323C398.45 142.276 401.153 174.99 397.908 210.731Z" fill="#516138"/>
<path d="M81.4265 168.957C77.5372 177.148 73.8379 185.633 70.4311 194.178C50.8271 243.348 40.8926 293.563 41.7044 339.398L40.1722 339.235C39.3596 293.229 49.3227 242.841 68.9881 193.517C72.4046 184.949 76.1145 176.439 80.015 168.226L81.4265 168.957Z" fill="#516138"/>
<path d="M374.54 145.248C376.233 142.703 375.231 139.06 372.3 137.111C369.37 135.162 365.622 135.645 363.928 138.19C362.234 140.735 363.237 144.378 366.167 146.327C369.097 148.276 372.846 147.793 374.54 145.248Z" fill="#FD6584"/>
<path d="M179.863 177.691C183.41 172.258 189.2 167.988 195.649 167.628C202.098 167.267 209.848 172.757 213.031 178.406C218.853 188.739 216.327 198.675 208.308 205.862C207.219 205.493 203.417 204.377 202.31 204.021L201.608 202.753L200.742 203.524C190.832 204.512 181.259 203.411 173.8 196.03C174.728 189.606 176.317 183.124 179.863 177.691Z" fill="black"/>
<path d="M206.434 250.219L205.262 261.081L205.952 275.325L174.393 271.577L171.427 250.219L175.205 250.256L206.434 250.219Z" fill="#FFB6B6"/>
<path d="M193.476 203.28C200.714 203.28 206.581 197.415 206.581 190.18C206.581 182.945 200.714 177.079 193.476 177.079C186.239 177.079 180.371 182.945 180.371 190.18C180.371 197.415 186.239 203.28 193.476 203.28Z" fill="#FFB7B7"/>
<path d="M178.955 214.521L186.454 210.023L201.452 208.524L214.709 215.272L214.576 235.887L206.166 257.268L170.92 252.77L169.581 245.228C169.581 245.228 159.832 232.138 170.331 224.642L178.955 214.521Z" fill="#6C8542"/>
<path d="M188.576 170.284C191.416 169.488 194.417 169.47 197.266 170.23C200.116 170.991 202.708 172.503 204.773 174.608C206.837 176.713 208.298 179.334 209.003 182.196C209.707 185.059 209.63 188.059 208.778 190.881C200.797 191.518 192.907 190.773 186.688 185.128L186.135 180.285L183.866 184.338C181.577 183.694 179.285 183.046 176.989 182.395C177.691 179.539 179.131 176.917 181.164 174.792C183.198 172.667 185.754 171.112 188.576 170.284Z" fill="black"/>
<path d="M133.946 153.308C133.591 154.066 133.406 154.892 133.404 155.728C133.403 156.565 133.585 157.392 133.938 158.15C134.29 158.909 134.805 159.581 135.446 160.119C136.087 160.658 136.838 161.049 137.646 161.266L162.062 207.319L171.917 199.716L144.818 156.837C145.092 155.455 144.85 154.021 144.137 152.806C143.424 151.592 142.29 150.68 140.95 150.245C139.61 149.81 138.157 149.882 136.866 150.446C135.575 151.011 134.536 152.029 133.946 153.308Z" fill="#FFB6B6"/>
<path d="M173.997 222.881C173.997 222.881 171.735 224.887 168.517 219.348C165.941 214.914 153.095 195.058 151.276 188.174C150.278 188.203 149.299 187.898 148.494 187.309C147.688 186.72 147.101 185.879 146.826 184.92L160.625 179.566C163.625 181.065 162.792 183.143 162.032 184.218L167.171 191.925L184.265 211.102L175.658 221.46L173.997 222.881Z" fill="#6C8542"/>
<path d="M407.256 461H0.744313C0.546908 461 0.357581 460.922 0.217994 460.782C0.0784078 460.643 0 460.453 0 460.256C0 460.059 0.0784078 459.869 0.217994 459.73C0.357581 459.59 0.546908 459.512 0.744313 459.512H407.256C407.453 459.512 407.642 459.59 407.782 459.73C407.922 459.869 408 460.059 408 460.256C408 460.453 407.922 460.643 407.782 460.782C407.642 460.922 407.453 461 407.256 461Z" fill="black"/>
<path d="M309.934 45.7319C302.597 38.5024 292.799 34.5123 282.974 31.9596C271.852 29.07 260.351 27.3678 248.988 25.7347C237.147 24.0328 225.258 22.7201 213.323 21.7966C201.403 20.8779 189.462 20.352 177.5 20.2189C166.841 20.0995 156.11 20.0958 145.502 21.2781C135.511 22.3916 125.544 24.6261 116.537 29.2135C108.519 33.2091 101.783 39.3726 97.0944 47.0039C92.7836 54.1071 90.2206 62.6221 91.1119 70.9718C91.5298 75.0834 92.8104 79.0606 94.87 82.6439C97.2843 86.6037 100.361 90.1196 103.966 93.0381C111.408 99.3205 120.307 103.913 126.709 111.38C128.4 113.336 129.877 115.467 131.114 117.736C132.044 119.458 133.09 120.939 134.819 121.943C136.363 122.824 138.132 123.228 139.905 123.104C141.678 122.981 143.375 122.335 144.781 121.249C146.776 119.684 148.208 117.272 149.751 115.286L155.133 108.363C155.522 107.742 155.973 107.163 156.478 106.632C156.841 106.333 156.243 106.597 156.361 106.522C156.427 106.481 156.541 106.504 156.613 106.474C156.971 106.372 157.338 106.303 157.71 106.271C161.64 105.548 165.578 104.873 169.524 104.244C184.095 101.894 198.761 99.9548 213.488 98.9098C221.079 98.3038 228.698 98.1222 236.309 98.3656C246.151 98.7683 255.857 100.722 265.662 101.565C276.22 102.472 287.309 102.347 297.257 98.2772C305.219 95.02 312.612 89.5401 316.923 81.9713C318.969 78.3916 320.181 74.397 320.469 70.2844C320.995 60.9563 316.458 52.1599 309.934 45.7319Z" fill="#B7D28C"/>
<path d="M171.632 27.8641C169.755 27.8641 167.878 27.8741 166.003 27.894C147.998 28.085 129.389 29.5403 115.267 38.8184C102.733 47.0539 93.9487 65.3983 101.383 78.5541C104.797 84.595 110.982 88.9923 117.53 93.6473C120.097 95.4722 122.751 97.3592 125.295 99.3914C130.852 103.831 136.085 109.788 139.095 116.487L152.317 99.477L154.815 98.9989C157.219 98.539 214.021 87.7714 244.273 91.2671C247.055 91.5887 249.868 91.9587 252.587 92.3163C264.877 93.9328 276.485 95.4587 287.629 93.2056C299.262 90.8521 312.037 81.87 312.797 69.8587C313.318 61.6356 307.966 52.6147 299.164 46.8769C290.264 41.0754 279.164 38.6801 268.557 36.7238C236.585 30.8345 204.142 27.869 171.632 27.8641Z" fill="white"/>
<path d="M274.244 54.0374H146.556C145.819 54.0374 145.112 53.7448 144.591 53.224C144.07 52.7031 143.777 51.9967 143.777 51.2601C143.777 50.5235 144.07 49.8171 144.591 49.2963C145.112 48.7754 145.819 48.4828 146.556 48.4828H274.244C274.981 48.4828 275.687 48.7754 276.208 49.2963C276.729 49.8171 277.022 50.5235 277.022 51.2601C277.022 51.9967 276.729 52.7031 276.208 53.224C275.687 53.7448 274.981 54.0374 274.244 54.0374Z" fill="#6C8542"/>
<path d="M274.244 71.0849H146.556C145.819 71.0849 145.112 70.7923 144.591 70.2715C144.07 69.7506 143.777 69.0442 143.777 68.3076C143.777 67.571 144.07 66.8646 144.591 66.3437C145.112 65.8229 145.819 65.5303 146.556 65.5303H274.244C274.981 65.5303 275.687 65.8229 276.208 66.3437C276.729 66.8646 277.022 67.571 277.022 68.3076C277.022 69.0442 276.729 69.7506 276.208 70.2715C275.687 70.7923 274.981 71.0849 274.244 71.0849Z" fill="#6C8542"/>
<path d="M161.436 88.132H146.556C145.819 88.132 145.112 87.8394 144.591 87.3186C144.07 86.7977 143.777 86.0913 143.777 85.3547C143.777 84.6181 144.07 83.9117 144.591 83.3908C145.112 82.87 145.819 82.5774 146.556 82.5774H161.436C162.173 82.5774 162.879 82.87 163.4 83.3908C163.921 83.9117 164.214 84.6181 164.214 85.3547C164.214 86.0913 163.921 86.7977 163.4 87.3186C162.879 87.8394 162.173 88.132 161.436 88.132Z" fill="#6C8542"/>
<path d="M138.365 154.75C144.887 154.75 150.173 149.465 150.173 142.945C150.173 136.426 144.887 131.141 138.365 131.141C131.843 131.141 126.557 136.426 126.557 142.945C126.557 149.465 131.843 154.75 138.365 154.75Z" fill="#B7D28C"/>
<path d="M104.008 288.105C105.702 285.561 104.699 281.918 101.769 279.969C98.8386 278.02 95.0901 278.503 93.3963 281.048C91.7026 283.593 92.7051 287.236 95.6355 289.185C98.5658 291.134 102.314 290.65 104.008 288.105Z" fill="#516138"/>
<path d="M357.369 287.302C359.062 284.757 358.06 281.114 355.13 279.165C352.199 277.216 348.451 277.699 346.757 280.244C345.063 282.789 346.066 286.432 348.996 288.381C351.926 290.33 355.675 289.847 357.369 287.302Z" fill="#B7D28C"/>
<path d="M261.725 195.439C263.419 192.894 262.417 189.251 259.486 187.302C256.556 185.353 252.807 185.837 251.114 188.381C249.42 190.926 250.422 194.569 253.353 196.518C256.283 198.467 260.032 197.984 261.725 195.439Z" fill="#B7D28C"/>
<path d="M222.803 447.427H215.903L212.62 420.822H222.803V447.427Z" fill="#FFB6B6"/>
<path d="M226.445 459.378H221.497L220.614 454.708L218.352 459.378H205.228C204.599 459.378 203.986 459.177 203.479 458.805C202.973 458.432 202.598 457.907 202.411 457.307C202.224 456.706 202.234 456.062 202.439 455.467C202.644 454.873 203.034 454.359 203.551 454.002L214.032 446.766V442.045L225.055 442.703L226.445 459.378Z" fill="black"/>
<path d="M184.046 447.427H177.146L173.863 420.822H184.046V447.427Z" fill="#FFB6B6"/>
<path d="M187.688 459.378H182.739L181.856 454.708L179.594 459.378H166.471C165.841 459.378 165.229 459.177 164.722 458.805C164.215 458.432 163.841 457.907 163.654 457.307C163.467 456.706 163.476 456.062 163.682 455.467C163.887 454.873 164.277 454.359 164.794 454.002L175.274 446.766V442.045L186.298 442.703L187.688 459.378Z" fill="black"/>
<path d="M225.78 424.484H225.705L224.378 381.225C225.237 379.569 225.673 377.727 225.647 375.862C225.621 373.997 225.134 372.167 224.23 370.536L224.04 370.192L224.532 367.909C225.165 364.977 224.875 361.92 223.701 359.159L222.463 318.806C226.886 290.153 205.809 271.467 205.809 271.467H174.235L167.457 294.748C162.976 338.393 163.789 380.923 170.9 422.128L170.706 422.226C170.008 422.467 169.708 423.433 170.037 424.385C170.365 425.337 171.198 425.913 171.896 425.672L188.57 425.092C189.268 424.852 189.568 423.885 189.239 422.933C188.911 421.981 188.078 421.405 187.38 421.646L186.247 422.219L188.664 380.476L188.396 372.852L188.949 364.202L191.505 325.294L201.179 373.139L211.061 424.966C210.789 425.212 210.597 425.536 210.513 425.893C210.428 426.251 210.454 426.626 210.586 426.969C210.719 427.312 210.953 427.606 211.256 427.813C211.56 428.021 211.919 428.131 212.287 428.13H225.78C226.264 428.13 226.728 427.938 227.07 427.596C227.412 427.254 227.604 426.79 227.604 426.307C227.604 425.823 227.412 425.36 227.07 425.018C226.728 424.676 226.264 424.484 225.78 424.484Z" fill="black"/>
<path d="M211.056 303.528C211.768 303.09 212.376 302.5 212.836 301.801C213.296 301.102 213.597 300.311 213.718 299.483C213.839 298.655 213.777 297.811 213.536 297.01C213.296 296.208 212.882 295.47 212.325 294.845L217.161 242.948L204.749 243.906L203.898 294.619C202.911 295.624 202.327 296.956 202.257 298.363C202.187 299.77 202.636 301.153 203.518 302.252C204.4 303.35 205.655 304.086 207.044 304.322C208.433 304.557 209.861 304.275 211.056 303.528Z" fill="#FFB6B6"/>
<path d="M214.249 215.479C214.249 215.479 217.241 215.041 216.895 221.437C216.617 226.557 217.936 258.117 215.682 264.871C216.532 265.394 217.184 266.185 217.535 267.119C217.885 268.054 217.915 269.078 217.619 270.031L203.142 266.947C201.456 264.049 201.805 261.073 203.031 260.591L202.959 251.33L199.76 220.802L212.08 215.757L214.249 215.479Z" fill="#6C8542"/>
</g>
</g>
</g>
<defs>
<clipPath id="clip0_1_2">
<rect width="408" height="461" fill="white"/>
</clipPath>
<clipPath id="clip1_1_2">
<rect width="408" height="461" fill="white"/>
</clipPath>
</defs>
</svg>
