<svg width="1097" height="465" viewBox="0 0 1097 465" fill="none" xmlns="http://www.w3.org/2000/svg">
<path opacity="0.05" d="M291.992 383.727L293.457 414.977C246.908 399.677 212.891 388.284 191.406 380.797C170.247 372.984 141.439 361.103 104.98 345.152C68.8477 328.876 33.8542 310.81 0 290.953C0 277.932 1.30208 265.562 3.90625 253.844C42.3177 242.451 90.9831 223.733 149.902 197.691C208.822 171.65 255.208 153.258 289.062 142.516L296.387 170.348C278.483 177.835 240.885 195.576 183.594 223.57C126.628 251.24 81.7057 270.283 48.8281 280.699C67.0573 294.697 107.585 314.228 170.41 339.293C233.236 364.033 273.763 378.844 291.992 383.727ZM638.672 0.914062L660.645 9.21484C648.275 51.5326 617.676 126.077 568.848 232.848C520.345 339.293 489.746 413.837 477.051 456.48C472.493 462.014 466.797 464.781 459.961 464.781C453.451 464.781 447.754 462.177 442.871 456.969C438.314 452.086 436.035 446.227 436.035 439.391C436.035 425.068 450.846 387.307 480.469 326.109C510.417 264.911 542.48 200.621 576.66 133.238C611.165 65.8555 631.836 21.7474 638.672 0.914062ZM802.734 414.977L804.199 383.727C822.428 378.844 862.956 364.033 925.781 339.293C988.607 314.228 1029.13 294.697 1047.36 280.699C1014.49 270.283 969.401 251.24 912.109 223.57C855.143 195.576 817.708 177.835 799.805 170.348L807.129 142.516C840.983 153.258 887.37 171.65 946.289 197.691C1005.21 223.733 1053.87 242.451 1092.29 253.844C1094.89 265.562 1096.19 277.932 1096.19 290.953C1062.34 310.81 1027.18 328.876 990.723 345.152C954.59 361.103 925.781 372.984 904.297 380.797C883.138 388.284 849.284 399.677 802.734 414.977Z" fill="black"/>
</svg>
